<mxfile host="www.draw.io" modified="2020-01-30T07:50:05.168Z" agent="Mozilla/5.0 (Android 9; Mobile; rv:67.0.3) Gecko/67.0.3 Firefox/67.0.3" etag="knGRUpa1PdRQ5rt9oSEw" version="12.6.1" type="github">
  <diagram id="C5RBs43oDa-KdzZeNtuy" name="Page-1">
    <mxGraphModel dx="1102" dy="611" grid="1" gridSize="10" guides="1" tooltips="1" connect="1" arrows="1" fold="1" page="1" pageScale="1" pageWidth="827" pageHeight="1169" math="0" shadow="0">
      <root>
        <mxCell id="WIyWlLk6GJQsqaUBKTNV-0"/>
        <mxCell id="WIyWlLk6GJQsqaUBKTNV-1" parent="WIyWlLk6GJQsqaUBKTNV-0"/>
        <mxCell id="AofymKX_eStTces13Uos-10" style="edgeStyle=orthogonalEdgeStyle;rounded=0;orthogonalLoop=1;jettySize=auto;html=1;entryX=0.25;entryY=1;entryDx=0;entryDy=0;" edge="1" parent="WIyWlLk6GJQsqaUBKTNV-1" source="kCWOjqtQE3j7d7yytdrT-0" target="kCWOjqtQE3j7d7yytdrT-18">
          <mxGeometry relative="1" as="geometry"/>
        </mxCell>
        <mxCell id="kCWOjqtQE3j7d7yytdrT-0" value="logiciel de bureautique" style="swimlane;fontStyle=1;align=center;verticalAlign=top;childLayout=stackLayout;horizontal=1;startSize=26;horizontalStack=0;resizeParent=1;resizeParentMax=0;resizeLast=0;collapsible=1;marginBottom=0;" parent="WIyWlLk6GJQsqaUBKTNV-1" vertex="1">
          <mxGeometry x="250" y="180" width="160" height="124" as="geometry"/>
        </mxCell>
        <mxCell id="AofymKX_eStTces13Uos-6" value="+ nom : String&#xa;+ date : String&#xa;+ version : Float&#xa;+ OS : String" style="text;strokeColor=none;fillColor=none;align=left;verticalAlign=top;spacingLeft=4;spacingRight=4;overflow=hidden;rotatable=0;points=[[0,0.5],[1,0.5]];portConstraint=eastwest;" vertex="1" parent="kCWOjqtQE3j7d7yytdrT-0">
          <mxGeometry y="26" width="160" height="64" as="geometry"/>
        </mxCell>
        <mxCell id="kCWOjqtQE3j7d7yytdrT-2" value="" style="line;strokeWidth=1;fillColor=none;align=left;verticalAlign=middle;spacingTop=-1;spacingLeft=3;spacingRight=3;rotatable=0;labelPosition=right;points=[];portConstraint=eastwest;" parent="kCWOjqtQE3j7d7yytdrT-0" vertex="1">
          <mxGeometry y="90" width="160" height="8" as="geometry"/>
        </mxCell>
        <mxCell id="kCWOjqtQE3j7d7yytdrT-3" value="+ method(type): type" style="text;strokeColor=none;fillColor=none;align=left;verticalAlign=top;spacingLeft=4;spacingRight=4;overflow=hidden;rotatable=0;points=[[0,0.5],[1,0.5]];portConstraint=eastwest;" parent="kCWOjqtQE3j7d7yytdrT-0" vertex="1">
          <mxGeometry y="98" width="160" height="26" as="geometry"/>
        </mxCell>
        <mxCell id="AofymKX_eStTces13Uos-11" style="edgeStyle=orthogonalEdgeStyle;rounded=0;orthogonalLoop=1;jettySize=auto;html=1;entryX=0.75;entryY=1;entryDx=0;entryDy=0;" edge="1" parent="WIyWlLk6GJQsqaUBKTNV-1" source="kCWOjqtQE3j7d7yytdrT-4" target="kCWOjqtQE3j7d7yytdrT-18">
          <mxGeometry relative="1" as="geometry"/>
        </mxCell>
        <mxCell id="kCWOjqtQE3j7d7yytdrT-4" value="logiciel de dessin" style="swimlane;fontStyle=1;align=center;verticalAlign=top;childLayout=stackLayout;horizontal=1;startSize=26;horizontalStack=0;resizeParent=1;resizeParentMax=0;resizeLast=0;collapsible=1;marginBottom=0;" parent="WIyWlLk6GJQsqaUBKTNV-1" vertex="1">
          <mxGeometry x="480" y="180" width="160" height="124" as="geometry"/>
        </mxCell>
        <mxCell id="AofymKX_eStTces13Uos-7" value="+ nom : String&#xa;+ date : String&#xa;+ version : Float&#xa;+ OS : String" style="text;strokeColor=none;fillColor=none;align=left;verticalAlign=top;spacingLeft=4;spacingRight=4;overflow=hidden;rotatable=0;points=[[0,0.5],[1,0.5]];portConstraint=eastwest;" vertex="1" parent="kCWOjqtQE3j7d7yytdrT-4">
          <mxGeometry y="26" width="160" height="64" as="geometry"/>
        </mxCell>
        <mxCell id="kCWOjqtQE3j7d7yytdrT-6" value="" style="line;strokeWidth=1;fillColor=none;align=left;verticalAlign=middle;spacingTop=-1;spacingLeft=3;spacingRight=3;rotatable=0;labelPosition=right;points=[];portConstraint=eastwest;" parent="kCWOjqtQE3j7d7yytdrT-4" vertex="1">
          <mxGeometry y="90" width="160" height="8" as="geometry"/>
        </mxCell>
        <mxCell id="kCWOjqtQE3j7d7yytdrT-7" value="+ method(type): type" style="text;strokeColor=none;fillColor=none;align=left;verticalAlign=top;spacingLeft=4;spacingRight=4;overflow=hidden;rotatable=0;points=[[0,0.5],[1,0.5]];portConstraint=eastwest;" parent="kCWOjqtQE3j7d7yytdrT-4" vertex="1">
          <mxGeometry y="98" width="160" height="26" as="geometry"/>
        </mxCell>
        <mxCell id="AofymKX_eStTces13Uos-12" style="edgeStyle=orthogonalEdgeStyle;rounded=0;orthogonalLoop=1;jettySize=auto;html=1;exitX=0.5;exitY=0;exitDx=0;exitDy=0;entryX=1;entryY=0.5;entryDx=0;entryDy=0;" edge="1" parent="WIyWlLk6GJQsqaUBKTNV-1" source="kCWOjqtQE3j7d7yytdrT-8" target="kCWOjqtQE3j7d7yytdrT-21">
          <mxGeometry relative="1" as="geometry"/>
        </mxCell>
        <mxCell id="kCWOjqtQE3j7d7yytdrT-8" value="logiciel de conception" style="swimlane;fontStyle=1;align=center;verticalAlign=top;childLayout=stackLayout;horizontal=1;startSize=26;horizontalStack=0;resizeParent=1;resizeParentMax=0;resizeLast=0;collapsible=1;marginBottom=0;" parent="WIyWlLk6GJQsqaUBKTNV-1" vertex="1">
          <mxGeometry x="710" y="180" width="160" height="124" as="geometry"/>
        </mxCell>
        <mxCell id="AofymKX_eStTces13Uos-8" value="+ nom : String&#xa;+ date : String&#xa;+ version : Float&#xa;+ OS : String" style="text;strokeColor=none;fillColor=none;align=left;verticalAlign=top;spacingLeft=4;spacingRight=4;overflow=hidden;rotatable=0;points=[[0,0.5],[1,0.5]];portConstraint=eastwest;" vertex="1" parent="kCWOjqtQE3j7d7yytdrT-8">
          <mxGeometry y="26" width="160" height="64" as="geometry"/>
        </mxCell>
        <mxCell id="kCWOjqtQE3j7d7yytdrT-10" value="" style="line;strokeWidth=1;fillColor=none;align=left;verticalAlign=middle;spacingTop=-1;spacingLeft=3;spacingRight=3;rotatable=0;labelPosition=right;points=[];portConstraint=eastwest;" parent="kCWOjqtQE3j7d7yytdrT-8" vertex="1">
          <mxGeometry y="90" width="160" height="8" as="geometry"/>
        </mxCell>
        <mxCell id="kCWOjqtQE3j7d7yytdrT-11" value="+ method(type): type" style="text;strokeColor=none;fillColor=none;align=left;verticalAlign=top;spacingLeft=4;spacingRight=4;overflow=hidden;rotatable=0;points=[[0,0.5],[1,0.5]];portConstraint=eastwest;" parent="kCWOjqtQE3j7d7yytdrT-8" vertex="1">
          <mxGeometry y="98" width="160" height="26" as="geometry"/>
        </mxCell>
        <mxCell id="kCWOjqtQE3j7d7yytdrT-13" value="logiciel de programmation" style="swimlane;fontStyle=1;align=center;verticalAlign=top;childLayout=stackLayout;horizontal=1;startSize=26;horizontalStack=0;resizeParent=1;resizeParentMax=0;resizeLast=0;collapsible=1;marginBottom=0;" parent="WIyWlLk6GJQsqaUBKTNV-1" vertex="1">
          <mxGeometry x="20" y="190" width="160" height="124" as="geometry"/>
        </mxCell>
        <mxCell id="kCWOjqtQE3j7d7yytdrT-26" value="+ nom : String&#xa;+ date : String&#xa;+ version : Float&#xa;+ OS : String" style="text;strokeColor=none;fillColor=none;align=left;verticalAlign=top;spacingLeft=4;spacingRight=4;overflow=hidden;rotatable=0;points=[[0,0.5],[1,0.5]];portConstraint=eastwest;" parent="kCWOjqtQE3j7d7yytdrT-13" vertex="1">
          <mxGeometry y="26" width="160" height="64" as="geometry"/>
        </mxCell>
        <mxCell id="kCWOjqtQE3j7d7yytdrT-15" value="" style="line;strokeWidth=1;fillColor=none;align=left;verticalAlign=middle;spacingTop=-1;spacingLeft=3;spacingRight=3;rotatable=0;labelPosition=right;points=[];portConstraint=eastwest;" parent="kCWOjqtQE3j7d7yytdrT-13" vertex="1">
          <mxGeometry y="90" width="160" height="8" as="geometry"/>
        </mxCell>
        <mxCell id="kCWOjqtQE3j7d7yytdrT-16" value="+ method(type): type" style="text;strokeColor=none;fillColor=none;align=left;verticalAlign=top;spacingLeft=4;spacingRight=4;overflow=hidden;rotatable=0;points=[[0,0.5],[1,0.5]];portConstraint=eastwest;" parent="kCWOjqtQE3j7d7yytdrT-13" vertex="1">
          <mxGeometry y="98" width="160" height="26" as="geometry"/>
        </mxCell>
        <mxCell id="kCWOjqtQE3j7d7yytdrT-18" value="Ã©diteurs" style="swimlane;fontStyle=1;align=center;verticalAlign=top;childLayout=stackLayout;horizontal=1;startSize=26;horizontalStack=0;resizeParent=1;resizeParentMax=0;resizeLast=0;collapsible=1;marginBottom=0;" parent="WIyWlLk6GJQsqaUBKTNV-1" vertex="1">
          <mxGeometry x="390" y="10" width="160" height="112" as="geometry"/>
        </mxCell>
        <mxCell id="kCWOjqtQE3j7d7yytdrT-19" value="+ nom : String&#xa;+ adresse : String&#xa;" style="text;strokeColor=none;fillColor=none;align=left;verticalAlign=top;spacingLeft=4;spacingRight=4;overflow=hidden;rotatable=0;points=[[0,0.5],[1,0.5]];portConstraint=eastwest;" parent="kCWOjqtQE3j7d7yytdrT-18" vertex="1">
          <mxGeometry y="26" width="160" height="52" as="geometry"/>
        </mxCell>
        <mxCell id="kCWOjqtQE3j7d7yytdrT-20" value="" style="line;strokeWidth=1;fillColor=none;align=left;verticalAlign=middle;spacingTop=-1;spacingLeft=3;spacingRight=3;rotatable=0;labelPosition=right;points=[];portConstraint=eastwest;" parent="kCWOjqtQE3j7d7yytdrT-18" vertex="1">
          <mxGeometry y="78" width="160" height="8" as="geometry"/>
        </mxCell>
        <mxCell id="kCWOjqtQE3j7d7yytdrT-21" value="+ method(type): type" style="text;strokeColor=none;fillColor=none;align=left;verticalAlign=top;spacingLeft=4;spacingRight=4;overflow=hidden;rotatable=0;points=[[0,0.5],[1,0.5]];portConstraint=eastwest;" parent="kCWOjqtQE3j7d7yytdrT-18" vertex="1">
          <mxGeometry y="86" width="160" height="26" as="geometry"/>
        </mxCell>
        <mxCell id="kCWOjqtQE3j7d7yytdrT-32" value="Mac" style="swimlane;fontStyle=1;align=center;verticalAlign=top;childLayout=stackLayout;horizontal=1;startSize=26;horizontalStack=0;resizeParent=1;resizeParentMax=0;resizeLast=0;collapsible=1;marginBottom=0;" parent="WIyWlLk6GJQsqaUBKTNV-1" vertex="1">
          <mxGeometry x="20" y="410" width="160" height="114" as="geometry"/>
        </mxCell>
        <mxCell id="kCWOjqtQE3j7d7yytdrT-33" value="+ id : int&#xa;+ logiciel installer : String&#xa;+ version installer : Float" style="text;strokeColor=none;fillColor=none;align=left;verticalAlign=top;spacingLeft=4;spacingRight=4;overflow=hidden;rotatable=0;points=[[0,0.5],[1,0.5]];portConstraint=eastwest;" parent="kCWOjqtQE3j7d7yytdrT-32" vertex="1">
          <mxGeometry y="26" width="160" height="54" as="geometry"/>
        </mxCell>
        <mxCell id="kCWOjqtQE3j7d7yytdrT-34" value="" style="line;strokeWidth=1;fillColor=none;align=left;verticalAlign=middle;spacingTop=-1;spacingLeft=3;spacingRight=3;rotatable=0;labelPosition=right;points=[];portConstraint=eastwest;" parent="kCWOjqtQE3j7d7yytdrT-32" vertex="1">
          <mxGeometry y="80" width="160" height="8" as="geometry"/>
        </mxCell>
        <mxCell id="kCWOjqtQE3j7d7yytdrT-35" value="+ method(type): type" style="text;strokeColor=none;fillColor=none;align=left;verticalAlign=top;spacingLeft=4;spacingRight=4;overflow=hidden;rotatable=0;points=[[0,0.5],[1,0.5]];portConstraint=eastwest;" parent="kCWOjqtQE3j7d7yytdrT-32" vertex="1">
          <mxGeometry y="88" width="160" height="26" as="geometry"/>
        </mxCell>
        <mxCell id="kCWOjqtQE3j7d7yytdrT-36" value="PC" style="swimlane;fontStyle=1;align=center;verticalAlign=top;childLayout=stackLayout;horizontal=1;startSize=26;horizontalStack=0;resizeParent=1;resizeParentMax=0;resizeLast=0;collapsible=1;marginBottom=0;" parent="WIyWlLk6GJQsqaUBKTNV-1" vertex="1">
          <mxGeometry x="250" y="410" width="160" height="114" as="geometry"/>
        </mxCell>
        <mxCell id="AofymKX_eStTces13Uos-1" value="+ id : int&#xa;+ logiciel installer : String&#xa;+ version installer : Float" style="text;strokeColor=none;fillColor=none;align=left;verticalAlign=top;spacingLeft=4;spacingRight=4;overflow=hidden;rotatable=0;points=[[0,0.5],[1,0.5]];portConstraint=eastwest;" vertex="1" parent="kCWOjqtQE3j7d7yytdrT-36">
          <mxGeometry y="26" width="160" height="54" as="geometry"/>
        </mxCell>
        <mxCell id="kCWOjqtQE3j7d7yytdrT-38" value="" style="line;strokeWidth=1;fillColor=none;align=left;verticalAlign=middle;spacingTop=-1;spacingLeft=3;spacingRight=3;rotatable=0;labelPosition=right;points=[];portConstraint=eastwest;" parent="kCWOjqtQE3j7d7yytdrT-36" vertex="1">
          <mxGeometry y="80" width="160" height="8" as="geometry"/>
        </mxCell>
        <mxCell id="kCWOjqtQE3j7d7yytdrT-39" value="+ method(type): type" style="text;strokeColor=none;fillColor=none;align=left;verticalAlign=top;spacingLeft=4;spacingRight=4;overflow=hidden;rotatable=0;points=[[0,0.5],[1,0.5]];portConstraint=eastwest;" parent="kCWOjqtQE3j7d7yytdrT-36" vertex="1">
          <mxGeometry y="88" width="160" height="26" as="geometry"/>
        </mxCell>
        <mxCell id="AofymKX_eStTces13Uos-13" style="edgeStyle=orthogonalEdgeStyle;rounded=0;orthogonalLoop=1;jettySize=auto;html=1;entryX=0.544;entryY=1.038;entryDx=0;entryDy=0;entryPerimeter=0;" edge="1" parent="WIyWlLk6GJQsqaUBKTNV-1" source="AofymKX_eStTces13Uos-2" target="kCWOjqtQE3j7d7yytdrT-11">
          <mxGeometry relative="1" as="geometry"/>
        </mxCell>
        <mxCell id="AofymKX_eStTces13Uos-14" style="edgeStyle=orthogonalEdgeStyle;rounded=0;orthogonalLoop=1;jettySize=auto;html=1;entryX=0.525;entryY=1.038;entryDx=0;entryDy=0;entryPerimeter=0;" edge="1" parent="WIyWlLk6GJQsqaUBKTNV-1" source="AofymKX_eStTces13Uos-2" target="kCWOjqtQE3j7d7yytdrT-7">
          <mxGeometry relative="1" as="geometry"/>
        </mxCell>
        <mxCell id="AofymKX_eStTces13Uos-2" value="Armoires" style="swimlane;fontStyle=1;align=center;verticalAlign=top;childLayout=stackLayout;horizontal=1;startSize=26;horizontalStack=0;resizeParent=1;resizeParentMax=0;resizeLast=0;collapsible=1;marginBottom=0;" vertex="1" parent="WIyWlLk6GJQsqaUBKTNV-1">
          <mxGeometry x="730" y="410" width="160" height="104" as="geometry"/>
        </mxCell>
        <mxCell id="AofymKX_eStTces13Uos-3" value="+ numÃ©ro_armoires : Int&#xa;+ numÃ©ro_rayon : Int" style="text;strokeColor=none;fillColor=none;align=left;verticalAlign=top;spacingLeft=4;spacingRight=4;overflow=hidden;rotatable=0;points=[[0,0.5],[1,0.5]];portConstraint=eastwest;" vertex="1" parent="AofymKX_eStTces13Uos-2">
          <mxGeometry y="26" width="160" height="44" as="geometry"/>
        </mxCell>
        <mxCell id="AofymKX_eStTces13Uos-4" value="" style="line;strokeWidth=1;fillColor=none;align=left;verticalAlign=middle;spacingTop=-1;spacingLeft=3;spacingRight=3;rotatable=0;labelPosition=right;points=[];portConstraint=eastwest;" vertex="1" parent="AofymKX_eStTces13Uos-2">
          <mxGeometry y="70" width="160" height="8" as="geometry"/>
        </mxCell>
        <mxCell id="AofymKX_eStTces13Uos-5" value="+ method(type): type" style="text;strokeColor=none;fillColor=none;align=left;verticalAlign=top;spacingLeft=4;spacingRight=4;overflow=hidden;rotatable=0;points=[[0,0.5],[1,0.5]];portConstraint=eastwest;" vertex="1" parent="AofymKX_eStTces13Uos-2">
          <mxGeometry y="78" width="160" height="26" as="geometry"/>
        </mxCell>
        <mxCell id="AofymKX_eStTces13Uos-9" style="edgeStyle=orthogonalEdgeStyle;rounded=0;orthogonalLoop=1;jettySize=auto;html=1;entryX=0.5;entryY=0;entryDx=0;entryDy=0;" edge="1" parent="WIyWlLk6GJQsqaUBKTNV-1" source="kCWOjqtQE3j7d7yytdrT-21" target="kCWOjqtQE3j7d7yytdrT-13">
          <mxGeometry relative="1" as="geometry"/>
        </mxCell>
        <mxCell id="AofymKX_eStTces13Uos-15" style="edgeStyle=orthogonalEdgeStyle;rounded=0;orthogonalLoop=1;jettySize=auto;html=1;entryX=0;entryY=0.5;entryDx=0;entryDy=0;" edge="1" parent="WIyWlLk6GJQsqaUBKTNV-1" source="kCWOjqtQE3j7d7yytdrT-3" target="AofymKX_eStTces13Uos-5">
          <mxGeometry relative="1" as="geometry">
            <Array as="points">
              <mxPoint x="330" y="370"/>
              <mxPoint x="570" y="370"/>
              <mxPoint x="570" y="501"/>
            </Array>
          </mxGeometry>
        </mxCell>
        <mxCell id="AofymKX_eStTces13Uos-16" style="edgeStyle=orthogonalEdgeStyle;rounded=0;orthogonalLoop=1;jettySize=auto;html=1;entryX=-0.012;entryY=0.886;entryDx=0;entryDy=0;entryPerimeter=0;" edge="1" parent="WIyWlLk6GJQsqaUBKTNV-1" source="kCWOjqtQE3j7d7yytdrT-16" target="AofymKX_eStTces13Uos-3">
          <mxGeometry relative="1" as="geometry">
            <Array as="points">
              <mxPoint x="100" y="380"/>
              <mxPoint x="455" y="380"/>
              <mxPoint x="455" y="475"/>
            </Array>
          </mxGeometry>
        </mxCell>
      </root>
    </mxGraphModel>
  </diagram>
</mxfile>
